<svg xmlns="http://www.w3.org/2000/svg" id="b" version="1.1" viewBox="0 0 399.7 111.7"><defs><style>.st0{fill:#00d8ff}</style></defs><g id="c"><g id="d"><path d="M36.6 63.2c-.2-.3-.4-.6-.5-.9s-4-7-4-7c-.7.5-1.3.9-1.9 1.5-1.2 1.1-2.1 2.6-2.9 4 .5.8 1 1.7 1.6 2.4 1.1 1.4 2.5 2.5 4 3.4h.2c1.6.9 3.2 1.5 5 1.8h.4V68c-.2-1.8-.9-3.4-1.8-5Z" class="st0"/><path d="M88.6 37c0-9.8-5.3-18.9-13.9-23.8L57.9 3.6c-8.5-4.9-19-4.8-27.5.1l-16.8 9.8C5.2 18.5 0 27.6 0 37.4v19.4c.1 9.8 5.4 18.9 14 23.8l16.8 9.6c8.5 4.9 19 4.8 27.5-.1L75 80.3c8.5-5 13.7-14.1 13.6-23.9V37ZM69.5 47c0 1.8.3 3.5 1 5.2.6 1.5 1.6 2.9 2.3 4.3.5.9.9 2 1 3 .2 1.1.1 2.2-.3 3.2 0 .2-.2.4-.3.5-.4.7-.9 1.4-1.7 1.9-.4.3-.8.5-1.3.6-.1 0-.3 0-.4.1H69.5c-1.4.4-2.9.5-4.4.5-1.7 0-3.4 0-5.1.6-1.1.4-2.2.9-3.2 1.4-1 .6-2 1.3-2.9 2.1-1.3 1.2-2.2 2.6-3 4.1-.8 1.4-1.8 2.9-3.1 3.9-.2.2-.3.3-.5.4h-.1c-.3.2-.5.3-.8.5-.4.2-.9.3-1.4.4h-1c-.9-.1-1.7-.5-2.4-1 0 0-.2-.1-.3-.2-1.3-1-2.3-2.5-3.1-3.9-.8-1.5-1.7-3-3-4.1-.9-.8-1.8-1.4-2.9-2.1-1-.6-2.1-1.1-3.2-1.4-1.6-.5-3.4-.6-5.1-.6-1.5 0-3.1 0-4.6-.6-1.2-.3-2.3-.9-3-2-.8-1-1.1-2.1-1.1-3.2v-.1c0-2 1-4 2-5.7.9-1.5 1.7-3 2-4.7.2-1.1.3-2.3.4-3.5 0-1.2-.1-2.4-.4-3.5-.4-1.7-1.2-3.2-2-4.7-.9-1.5-1.8-3.3-1.9-5.1-.1-1.3.1-2.7 1-3.9.3-.5.8-.8 1.2-1.2.2-.1.4-.3.7-.4.1 0 .2-.1.3-.2.2 0 .3-.1.5-.2 1-.4 2-.6 3-.6 1.6 0 3.3 0 4.9-.1 1.8-.2 3.4-.9 5-1.8h.2c1.5-.9 2.9-2 4-3.4 1-1.3 1.7-2.8 2.6-4.2.7-1.1 1.6-2.1 2.7-2.8 0 0 .1 0 .2-.1.1 0 .2-.1.3-.2.2-.1.4-.2.7-.3h.2c.3 0 .5-.2.8-.2H45.7c.2 0 .5.1.7.2.1 0 .2.1.4.2.2 0 .3.2.5.3 0 0 .2 0 .3.1 0 0 .1 0 .2.1 1 .7 1.9 1.6 2.5 2.7.9 1.4 1.6 2.9 2.6 4.2 1.1 1.4 2.5 2.5 4 3.4h.2c1.6.9 3.2 1.5 5 1.8 1.6.2 3.3 0 4.9.1 1.1 0 2.2.3 3.1.7.4.2.9.4 1.3.6.7.5 1.2 1.1 1.6 1.7.4.6.6 1.4.7 2.2v1.4c-.1 1.1-.5 2.2-1 3.1-.8 1.5-1.7 2.8-2.3 4.3-.7 1.7-.9 3.4-1 5.2v.4Z" class="st0"/><path d="M30.7 34.4c-.8.2-1.5.4-2.2.8.5.7 1 1.3 1.6 1.8 1.1 1 2.3 1.8 3.6 2.5l9.7 5.6v-11h-8.3c-1.4 0-2.9 0-4.3.4ZM26.8 41.3c.5 1.4 1.1 2.7 1.9 4s4.1 7.1 4.1 7.1l9.5-5.5-9.6-5.5c-.3-.2-.6-.4-.9-.5-1.6-.9-3.2-1.5-5-1.8h-.4c0 .8.2 1.6.4 2.3ZM34.1 31.9h9.2c0-.8-.1-1.6-.3-2.4-.3-1.6-1.1-3.1-2-4.5-1.7 0-3.3 0-4.9.6-1.1.4-2.2.9-3.2 1.4-1 .6-2 1.3-2.9 2.1-.6.5-1.1 1.1-1.5 1.7.1 0 .2.1.3.2 1.7.7 3.4.9 5.2 1ZM26.3 45.4c-.9-1.5-2-2.9-3.4-4-.1 0-.2-.2-.4-.3 0 .1-.1.2-.2.4-.7 1.7-.9 3.4-1 5.2v.4c0 1.8.3 3.5 1 5.2.4.9.9 1.8 1.4 2.6 1 0 2 0 3-.1 1.5-.2 2.9-.7 4.2-1.3l-4.6-8ZM60.1 39.4c-1.3.4-2.6 1.1-3.9 1.8l-9.7 5.6 9.5 5.5 4.1-7c.7-1.3 1.4-2.6 1.9-4 .2-.8.4-1.5.5-2.3-.8 0-1.6.2-2.3.5ZM37.9 61.3c.7 1.3 1.5 2.5 2.5 3.6.5.6 1.2 1.1 1.8 1.6.3-.7.6-1.5.8-2.2.3-1.4.4-2.9.4-4.3V48.8l-9.5 5.5 4.1 7.1ZM67 43.4c-.2-.8-.4-1.5-.8-2.2-.1 0-.2.2-.3.2-1.4 1.1-2.5 2.5-3.4 4l-4.6 8c.7.4 1.5.7 2.2.9 1.6.5 3.3.6 4.9.6.8-1.4 1.6-2.9 2-4.5.2-1.1.3-2.3.4-3.5 0-1.2-.1-2.4-.4-3.5ZM59.8 31c.1 0 .3-.1.4-.2-.4-.6-.9-1.2-1.5-1.7-.9-.8-1.8-1.4-2.9-2.1-1-.6-2.1-1.1-3.2-1.4-1.6-.5-3.3-.6-4.9-.6-.5.9-1 1.7-1.4 2.6-.6 1.4-.8 2.8-.9 4.3h9.2c1.8 0 3.5-.3 5.2-1ZM56.7 55.3l-4 7c-.2.3-.4.6-.5.9-.9 1.6-1.5 3.2-1.8 5v.4h.4c1.8-.2 3.4-.9 5-1.8h.2c1.5-.9 2.9-2 4-3.4.6-.8 1.1-1.6 1.6-2.4-.5-.9-1-1.7-1.6-2.5-.9-1.2-2-2.1-3.3-2.9ZM54.9 54.2l-9.5-5.5v12.2c0 1.8.3 3.5 1 5.2 0 .1.1.2.2.3.6-.5 1.3-1 1.8-1.6 1-1.1 1.8-2.3 2.5-3.6l4.1-7.1ZM55 39.5l.9-.6c1.5-.9 2.9-2 4-3.4 0-.1.1-.2.2-.3-.7-.3-1.5-.6-2.3-.8-1.4-.3-2.9-.4-4.4-.4h-8.1v11l9.6-5.5Z" class="st0"/><g id="f"><path d="M130.8 37.8v.2l-13.9 35.1h-6.1c0-.1 5.2-12.2 5.2-12.2L105.9 38v-.2h6.3l5 12.1c.6 1.4 1.1 2.9 1.6 4.6.5-1.7 1-3.2 1.4-4.6l4.6-12.1h6ZM135.7 25.4h22.5v5.8h-16.3v10.4h14.6v5.6h-14.6v14.3h-6.3V25.4ZM162.7 29.4c0-1.9 1.4-3.4 3.6-3.4s3.6 1.5 3.6 3.5-1.4 3.4-3.6 3.4-3.6-1.5-3.6-3.4Zm.7 8.4h5.8v23.6h-5.8V37.8ZM176 23.3h5.8v38.2H176V23.3ZM210 48.8c0 .8-.1 1.8-.2 2.8h-17c.7 3.8 3.7 5.8 7.5 5.8s4.6-.8 6.3-2.2l2.4 3.7c-2.7 2.2-5.6 3.3-9.2 3.3-7.6 0-12.8-5.1-12.8-12.6s5-12.4 12.2-12.4S210 41.7 210 48.8Zm-17.1-1.2h11.7c-.2-3.8-2.4-5.7-5.4-5.7s-5.6 2.1-6.3 5.7ZM213.4 59.4l2.3-4.1c2 1.3 4.2 2 6.5 2s3.5-1 3.5-2.4-2.2-2.6-4.6-3.5c-3.8-1.4-6.7-3.4-6.7-7.3s3.9-6.6 8.4-6.6 5.2.6 7.7 2.1l-2 3.9c-1.7-.9-3.7-1.4-5.2-1.4s-3.3.5-3.3 2 1.7 2.4 4.3 3.3c4.1 1.5 7.1 3.5 7.1 7.4s-3.6 7.2-8.7 7.2-6.4-.8-9.2-2.6ZM271.7 37.8v24.6c0 7.6-5.1 11.3-12.4 11.3s-7.8-1.2-10.7-3.6l2.2-4.3c2.2 1.7 4.8 2.8 8 2.8s7-2 7-6 0-2.5.1-3.9c-2.1 2.2-4.9 3.2-7.8 3.2-6.7 0-11.3-5.1-11.3-12.3s4.6-12.3 11.2-12.3 6.7 1.3 8.7 4l1.2-3.4h3.8Zm-5.5 11.8c0-4.2-2.4-7.3-6.8-7.3s-6.7 3-6.7 7.3 2.5 7.3 6.6 7.3 6.8-3.1 6.8-7.3ZM294.5 38.3l-1.5 4.9c-.9-.3-1.9-.5-3.1-.5-3.3 0-5.6 2.2-5.6 5.9v12.9h-5.8V37.9h3.9l1.1 3.5c1.4-2.6 3.8-4 6.8-4s3 .4 4.1 1ZM317.4 46.2v15.3h-3.9l-1.1-3.6c-1.7 2.5-4.6 4-8.4 4s-7.4-2.4-7.4-6.6 4.8-8.4 12-8.4 2.1 0 3 .1v-1.1c0-2.4-1.8-3.7-4.8-3.7s-4.9.7-7.4 1.9l-1.6-4.4c3.5-1.6 6.7-2.4 9.9-2.4 6 0 9.8 3.1 9.8 8.8Zm-5.7 4.6c-1-.1-1.7-.2-2.8-.2-4.2 0-6.6 1.5-6.6 4.1s1.3 2.9 3.4 2.9c3.4 0 5.9-2.5 6-6.8ZM348.7 49.5c0 7.4-4.7 12.5-11.3 12.5s-6-1.3-7.9-3.3c.1 1.6.1 3.6.1 5.6V73h-5.8V37.7h3.9l1.1 3.6c2-2.6 4.9-4.2 8.6-4.2 6.5 0 11.3 5.2 11.3 12.3Zm-5.8.2c0-4.4-2.6-7.4-6.6-7.4s-6.8 2.9-6.8 7.3 2.8 7.4 6.8 7.4 6.6-3 6.6-7.3ZM375.5 46.6v14.8h-5.8V47c0-2.9-1.2-4.7-4.1-4.7s-5.7 3.1-5.7 6.9v12.2h-5.8V23.3h5.8V41c1.5-2.3 3.8-3.8 7.3-3.8 5.6 0 8.4 3.6 8.4 9.4ZM380.2 59.4l2.3-4.1c2 1.3 4.2 2 6.5 2s3.5-1 3.5-2.4-2.2-2.6-4.6-3.5c-3.8-1.4-6.7-3.4-6.7-7.3s3.9-6.6 8.4-6.6 5.2.6 7.7 2.1l-2 3.9c-1.7-.9-3.7-1.4-5.2-1.4s-3.3.5-3.3 2 1.7 2.4 4.3 3.3c4.1 1.5 7.1 3.5 7.1 7.4s-3.6 7.2-8.7 7.2-6.4-.8-9.2-2.6ZM109 88.7h-3.1v-1.8h3.1v-4.3c0-2.9 1.5-5.4 4.8-5.4s2.7.5 3.9 1.3l-.9 1.5c-.8-.6-1.6-.9-2.7-.9-1.8 0-3 1.2-3 3.5v4.3h4.9v1.8h-4.9v13.1H109V88.7ZM117.3 94.3c0-4.6 3.2-7.8 7.7-7.8s7.8 3.2 7.8 7.8-3.2 7.8-7.8 7.8-7.7-3.2-7.7-7.8Zm13.4 0c0-3.4-2.3-5.9-5.7-5.9s-5.6 2.5-5.6 5.9 2.3 5.9 5.6 5.9 5.7-2.4 5.7-5.9ZM145.8 87.1l-.6 1.8c-.6-.2-1.2-.4-2-.4-2.4 0-4.1 1.7-4.1 4.6v8.6H137V86.8h1.6l.4 2.2c.8-1.5 2.3-2.5 4.4-2.5s1.8.2 2.4.5ZM154.9 100.4l1.1-1.6c1.3.9 2.7 1.3 4.4 1.3s3-.9 3-2.3-1.7-2.2-3.5-2.9c-2.4-.9-4.5-2.1-4.5-4.5s2.3-3.8 4.8-3.8 3.2.5 4.5 1.3l-.9 1.5c-1.1-.6-2.3-.9-3.5-.9s-2.9.5-2.9 1.9 1.4 2 3.2 2.7c2.7 1 4.8 2.2 4.8 4.7s-2.1 4.2-5.1 4.2-3.9-.6-5.5-1.6ZM170.4 97.6v-8.8h-2.9V87h2.9v-4.9h2.1V87h5.4v1.8h-5.4v8.8c0 1.9.8 2.5 2.1 2.5s2-.3 2.9-1l.9 1.5c-1.1.8-2.5 1.4-4.1 1.4-2.4 0-4-1.4-4-4.5ZM190.3 87.1l-.6 1.8c-.6-.2-1.2-.4-2-.4-2.4 0-4.1 1.7-4.1 4.6v8.6h-2.1V86.8h1.6l.4 2.2c.8-1.5 2.3-2.5 4.4-2.5s1.8.2 2.4.5ZM205.7 93.7c0 .5 0 .9-.1 1.4h-12c.3 3.2 2.8 5 5.6 5s3.4-.6 4.6-1.8l1.2 1.5c-1.5 1.4-3.4 2.3-5.7 2.3-4.5 0-7.7-3.2-7.7-7.8s3.1-7.8 7.6-7.8 6.6 2.9 6.6 7.2Zm-12-.3h10c0-3.2-1.9-4.9-4.6-4.9s-5 2-5.4 4.9ZM220.7 91.9v9.9h-1.5l-.4-2.7c-1.1 1.8-3 3-5.7 3s-4.8-1.6-4.8-4.1 3.1-5.2 7.5-5.2 2 0 2.7.1v-1c0-2.1-1.5-3.1-3.8-3.1s-3.3.5-5 1.2l-.7-1.8c2-.9 4-1.4 5.9-1.4 3.4 0 5.7 1.8 5.7 5.1Zm-2.1 2.6c-.8-.1-1.5-.1-2.4-.1-3.5 0-5.6 1.2-5.6 3.4s1.1 2.4 2.9 2.4c3.1 0 5-2.2 5.1-5.6ZM247.9 92.5v9.3h-2.1v-9.4c0-2.4-1.2-3.8-3.3-3.8-3 0-4.6 2.7-4.6 5.5v7.7h-2.1v-9.5c0-2.1-1.1-3.8-3.3-3.8s-4.6 2.7-4.6 5.5v7.7h-2.1V86.8h1.6l.5 2.6c1-1.8 2.7-2.9 4.9-2.9s3.9 1.1 4.6 3c1-1.8 2.7-3 5.2-3s5.3 2.3 5.3 5.9ZM252.9 77.7h2.1v24.1h-2V77.7ZM259.8 81.5c0-.9.6-1.5 1.6-1.5s1.6.7 1.6 1.5-.6 1.5-1.6 1.5-1.6-.7-1.6-1.5Zm.5 5.4h2.1v14.9h-2.1V86.9ZM268.7 97.6v-8.8h-2.9V87h2.9v-4.9h2.1V87h5.4v1.8h-5.4v8.8c0 1.9.8 2.5 2.1 2.5s2-.3 2.9-1l.9 1.5c-1.1.8-2.5 1.4-4.1 1.4-2.4 0-4-1.4-4-4.5Z" class="st0"/></g></g></g></svg>