<?xml version="1.0" encoding="UTF-8"?><svg id="b" xmlns="http://www.w3.org/2000/svg" viewBox="0 0 399.7309 111.669"><g id="c"><g id="d"><path d="M.0003,37.4083l.0901,19.3575c.0435,9.8338,5.3331,18.8943,13.8719,23.7742l16.8103,9.601c8.5387,4.8766,19.0312,4.8268,27.5233-.1274l16.7202-9.7595c8.4922-4.9572,13.695-14.0644,13.6483-23.8984l-.0901-19.3605c-.0466-9.8338-5.3332-18.8943-13.8719-23.7679L57.8921,3.6232c-8.5388-4.8766-19.0281-4.827-27.5202.1272L13.6485,13.51C5.1564,18.4641-.0463,27.5745.0003,37.4083" fill="#242265"/><g id="e"><path d="M42.9575,64.1877c-.3604,1.6791-1.1948,3.1825-2.0485,4.6558-1.5804,2.7277-3.0382,6.1161-.8882,9.0237,1.7098,2.3124,5.0797,2.8535,7.4756,1.1902,2.9233-2.0293,2.76-5.8101,1.2418-8.6482-.776-1.4507-1.6971-2.8096-2.3306-4.3358-.6942-1.6727-.9348-3.4217-.9677-5.2225-.0067-.364-.0098-.7269-.0115-1.0895h-2.1077c.0084,1.4823-.0549,2.989-.3634,4.4261Z" fill="#fff"/><path d="M42.9575,29.5293c-.3604-1.6791-1.1948-3.1825-2.0485-4.6558-1.5804-2.7277-3.0382-6.1161-.8882-9.0237,1.7098-2.3124,5.0797-2.8535,7.4756-1.1902,2.9233,2.0293,2.76,5.8101,1.2418,8.6482-.776,1.4507-1.6971,2.8096-2.3306,4.3358-.6942,1.6727-.9348,3.4217-.9677,5.2225-.0067.364-.0098.7269-.0115,1.0895h-2.1077c.0084-1.4823-.0549-2.989-.3634-4.4261Z" fill="#fff"/><rect x="43.3196" y="33.6626" width="2.1074" height="26.4403" fill="#fff"/><path d="M30.0738,56.7493c-1.2739,1.1516-2.1587,2.626-3.0078,4.1019-1.5721,2.7326-3.7776,5.6892-7.3707,5.2811-2.8575-.3246-5.0111-2.9724-4.7686-5.8789.2958-3.5463,3.6517-5.2953,6.8686-5.3995,1.6443-.0533,3.2818.065,4.9202-.1495,1.7957-.2352,3.4307-.9013,5.0066-1.7732.3185-.1762.6344-.355.9493-.5348l1.0538,1.8253c-1.2879.7339-2.561,1.542-3.6514,2.5278Z" fill="#fff"/><path d="M60.0888,39.4201c1.6343-.5275,3.3535-.5565,5.0563-.5539,3.1525.0048,6.8158-.4269,8.2589-3.7427,1.1477-2.637-.0686-5.8259-2.707-7.0692-3.2191-1.517-6.4117.5148-8.1105,3.2486-.8683,1.3974-1.5846,2.8746-2.5896,4.1862-1.1015,1.4376-2.4959,2.5204-4.039,3.4492-.3118.1878-.6246.3719-.9378.5547l1.0538,1.8253c1.2795-.7484,2.616-1.4469,4.0148-1.8983Z" fill="#fff"/><rect x="43.2986" y="33.6505" width="2.1074" height="26.4403" transform="translate(25.9374 108.7162) rotate(-120)" fill="#fff"/><path d="M60.0888,54.2969c1.6343.5275,3.3535.5565,5.0563.5539,3.1525-.0048,6.8158.4269,8.2589,3.7427,1.1477,2.637-.0686,5.8259-2.707,7.0692-3.2191,1.517-6.4117-.5148-8.1105-3.2486-.8683-1.3974-1.5846-2.8746-2.5896-4.1862-1.1015-1.4376-2.4959-2.5204-4.039-3.4492-.3118-.1878-.6246-.3719-.9378-.5547l1.0538-1.8253c1.2795.7484,2.616,1.4469,4.0148,1.8983Z" fill="#fff"/><path d="M30.0738,36.9677c-1.2739-1.1516-2.1587-2.626-3.0078-4.1019-1.5721-2.7326-3.7776-5.6892-7.3707-5.2811-2.8575.3246-5.0111,2.9724-4.7686,5.8789.2958,3.5463,3.6517,5.2953,6.8686,5.3995,1.6443.0533,3.2818-.065,4.9202.1495,1.7957.2352,3.4307.9013,5.0066,1.7732.3185.1762.6344.355.9493.5348l1.0538-1.8253c-1.2879-.7339-2.561-1.542-3.6514-2.5278Z" fill="#fff"/><rect x="43.3407" y="33.6505" width="2.1074" height="26.4403" transform="translate(107.1827 31.8593) rotate(120)" fill="#fff"/><path d="M66.986,50.3454c-.3604,1.6791-1.1948,3.1825-2.0485,4.6558-1.5804,2.7277-3.0382,6.1161-.8882,9.0237,1.7098,2.3124,5.0797,2.8535,7.4756,1.1902,2.9233-2.0293,2.76-5.8101,1.2418-8.6482-.776-1.4507-1.6971-2.8096-2.3306-4.3358-.6942-1.6727-.9348-3.4217-.9677-5.2225-.0067-.364-.0098-.7269-.0115-1.0895h-2.1077c.0084,1.4823-.0549,2.989-.3634,4.4261Z" fill="#fff"/><path d="M66.986,43.3716c-.3604-1.6791-1.1948-3.1825-2.0485-4.6558-1.5804-2.7277-3.0382-6.1161-.8882-9.0237,1.7098-2.3124,5.0797-2.8535,7.4756-1.1902,2.9233,2.0293,2.76,5.8101,1.2418,8.6482-.776,1.4507-1.6971,2.8096-2.3306,4.3358-.6942,1.6727-.9348,3.4217-.9677,5.2225-.0067.364-.0098.7269-.0115,1.0895h-2.1077c.0084-1.4823-.0549-2.989-.3634-4.4261Z" fill="#fff"/><path d="M18.8735,50.3454c-.3604,1.6791-1.1948,3.1825-2.0485,4.6558-1.5804,2.7277-3.0382,6.1161-.8882,9.0237,1.7098,2.3124,5.0797,2.8535,7.4756,1.1902,2.9233-2.0293,2.76-5.8101,1.2418-8.6482-.776-1.4507-1.6971-2.8096-2.3306-4.3358-.6942-1.6727-.9348-3.4217-.9677-5.2225-.0067-.364-.0098-.7269-.0115-1.0895h-2.1077c.0084,1.4823-.0549,2.989-.3634,4.4261Z" fill="#fff"/><path d="M18.8735,43.3716c-.3604-1.6791-1.1948-3.1825-2.0485-4.6558-1.5804-2.7277-3.0382-6.1161-.8882-9.0237,1.7098-2.3124,5.0797-2.8535,7.4756-1.1902,2.9233,2.0293,2.76,5.8101,1.2418,8.6482-.776,1.4507-1.6971,2.8096-2.3306,4.3358-.6942,1.6727-.9348,3.4217-.9677,5.2225-.0067.364-.0098.7269-.0115,1.0895h-2.1077c.0084-1.4823-.0549-2.989-.3634-4.4261Z" fill="#fff"/><path d="M30.0207,29.0648c-1.2739,1.1516-2.1587,2.626-3.0078,4.1019-1.5721,2.7326-3.7776,5.6892-7.3707,5.2811-2.8575-.3246-5.0111-2.9724-4.7686-5.8789.2958-3.5463,3.6517-5.2953,6.8686-5.3995,1.6443-.0533,3.2818.065,4.9202-.1495,1.7957-.2352,3.4307-.9013,5.0066-1.7732.3185-.1762.6344-.355.9493-.5348l1.0538,1.8253c-1.2879.7339-2.561,1.542-3.6514,2.5278Z" fill="#fff"/><path d="M36.0602,25.5779c1.6343-.5275,3.3535-.5565,5.0563-.5539,3.1525.0048,6.8158-.4269,8.2589-3.7427,1.1477-2.637-.0686-5.8259-2.707-7.0692-3.2191-1.517-6.4117.5148-8.1105,3.2486-.8683,1.3974-1.5846,2.8746-2.5896,4.1862-1.1015,1.4376-2.4959,2.5204-4.039,3.4492-.3118.1878-.6246.3719-.9378.5547l1.0538,1.8253c1.2795-.7484,2.616-1.4469,4.0148-1.8983Z" fill="#fff"/><path d="M54.1046,70.6024c-1.2739,1.1516-2.1587,2.626-3.0078,4.1019-1.5721,2.7326-3.7776,5.6892-7.3707,5.2811-2.8575-.3246-5.0111-2.9724-4.7686-5.8789.2958-3.5463,3.6517-5.2953,6.8686-5.3995,1.6443-.0533,3.2818.065,4.9202-.1495,1.7957-.2352,3.4307-.9013,5.0066-1.7732.3185-.1762.6344-.355.9493-.5348l1.0538,1.8253c-1.2879.7339-2.561,1.542-3.6514,2.5278Z" fill="#fff"/><path d="M60.1442,67.1155c1.6343-.5275,3.3535-.5565,5.0563-.5539,3.1525.0048,6.8158-.4269,8.2589-3.7427,1.1477-2.637-.0686-5.8259-2.707-7.0692-3.2191-1.517-6.4117.5148-8.1105,3.2486-.8683,1.3974-1.5846,2.8746-2.5896,4.1862-1.1015,1.4376-2.4959,2.5204-4.039,3.4492-.3118.1878-.6246.3719-.9378.5547l1.0538,1.8253c1.2795-.7484,2.616-1.4469,4.0148-1.8983Z" fill="#fff"/><path d="M58.726,29.0648c1.2739,1.1516,2.1587,2.626,3.0078,4.1019,1.5721,2.7326,3.7776,5.6892,7.3707,5.2811,2.8575-.3246,5.0111-2.9724,4.7686-5.8789-.2958-3.5463-3.6517-5.2953-6.8686-5.3995-1.6443-.0533-3.2818.065-4.9202-.1495-1.7957-.2352-3.4307-.9013-5.0066-1.7732-.3185-.1762-.6344-.355-.9493-.5348l-1.0538,1.8253c1.2879.7339,2.561,1.542,3.6514,2.5278Z" fill="#fff"/><path d="M52.6865,25.5779c-1.6343-.5275-3.3535-.5565-5.0563-.5539-3.1525.0048-6.8158-.4269-8.2589-3.7427-1.1477-2.637.0686-5.8259,2.707-7.0692,3.2191-1.517,6.4117.5148,8.1105,3.2486.8683,1.3974,1.5846,2.8746,2.5896,4.1862,1.1015,1.4376,2.4959,2.5204,4.039,3.4492.3118.1878.6246.3719.9378.5547l-1.0538,1.8253c-1.2795-.7484-2.616-1.4469-4.0148-1.8983Z" fill="#fff"/><path d="M34.6421,70.6024c1.2739,1.1516,2.1587,2.626,3.0078,4.1019,1.5721,2.7326,3.7776,5.6892,7.3707,5.2811,2.8575-.3246,5.0111-2.9724,4.7686-5.8789-.2958-3.5463-3.6517-5.2953-6.8686-5.3995-1.6443-.0533-3.2818.065-4.9202-.1495-1.7957-.2352-3.4307-.9013-5.0066-1.7732-.3185-.1762-.6344-.355-.9493-.5348l-1.0538,1.8253c1.2879.7339,2.561,1.542,3.6514,2.5278Z" fill="#fff"/><path d="M28.6025,67.1155c-1.6343-.5275-3.3535-.5565-5.0563-.5539-3.1525.0048-6.8158-.4269-8.2589-3.7427-1.1477-2.637.0686-5.8259,2.707-7.0692,3.2191-1.517,6.4117.5148,8.1105,3.2486.8683,1.3974,1.5846,2.8746,2.5896,4.1862,1.1015,1.4376,2.4959,2.5204,4.039,3.4492.3118.1878.6246.3719.9378.5547l-1.0538,1.8253c-1.2795-.7484-2.616-1.4469-4.0148-1.8983Z" fill="#fff"/><path d="M61.9522,41.2835c.5275-1.6343.5565-3.3535.5539-5.0563-.0048-3.1525.4269-6.8158,3.7427-8.2589,2.637-1.1477,5.8259.0686,7.0692,2.707,1.517,3.2191-.5148,6.4117-3.2486,8.1105-1.3974.8683-2.8746,1.5846-4.1862,2.5896-1.4376,1.1015-2.5204,2.4959-3.4492,4.039-.1878.3118-.3719.6246-.5547.9378l-1.8253-1.0538c.7484-1.2795,1.4469-2.616,1.8983-4.0148Z" fill="#fff"/><path d="M48.3598,64.8576c-1.1516,1.2739-2.626,2.1587-4.1019,3.0078-2.7326,1.5721-5.6892,3.7776-5.2811,7.3707.3246,2.8575,2.9724,5.0111,5.8789,4.7686,3.5463-.2958,5.2953-3.6517,5.3995-6.8686.0533-1.6443-.065-3.2818.1495-4.9202.2352-1.7957.9013-3.4307,1.7732-5.0066.1762-.3185.355-.6344.5348-.9493l-1.8253-1.0538c-.7339,1.2879-1.542,2.561-2.5278,3.6514Z" fill="#fff"/><rect x="55.8187" y="42.5059" width="2.1074" height="20.8788" transform="translate(34.0921 -21.3429) rotate(30)" fill="#fff"/><path d="M26.7945,41.2835c-.5275-1.6343-.5565-3.3535-.5539-5.0563.0048-3.1525-.4269-6.8158-3.7427-8.2589-2.637-1.1477-5.8259.0686-7.0692,2.707-1.517,3.2191.5148,6.4117,3.2486,8.1105,1.3974.8683,2.8746,1.5846,4.1862,2.5896,1.4376,1.1015,2.5204,2.4959,3.4492,4.039.1878.3118.3719.6246.5547.9378l1.8253-1.0538c-.7484-1.2795-1.4469-2.616-1.8983-4.0148Z" fill="#fff"/><path d="M40.3869,64.8576c1.1516,1.2739,2.626,2.1587,4.1019,3.0078,2.7326,1.5721,5.6892,3.7776,5.2811,7.3707-.3246,2.8575-2.9724,5.0111-5.8789,4.7686-3.5463-.2958-5.2953-3.6517-5.3995-6.8686-.0533-1.6443.065-3.2818-.1495-4.9202-.2352-1.7957-.9013-3.4307-1.7732-5.0066-.1762-.3185-.355-.6344-.5348-.9493l1.8253-1.0538c.7339,1.2879,1.542,2.561,2.5278,3.6514Z" fill="#fff"/><rect x="30.8206" y="42.5059" width="2.1074" height="20.8788" transform="translate(85.9509 82.8601) rotate(150)" fill="#fff"/><path d="M57.958,34.402c1.6791.3604,3.1825,1.1948,4.6558,2.0485,2.7277,1.5804,6.1161,3.0382,9.0237.8882,2.3124-1.7098,2.8535-5.0797,1.1902-7.4756-2.0293-2.9233-5.8101-2.76-8.6482-1.2418-1.4507.776-2.8096,1.6971-4.3358,2.3306-1.6727.6942-3.4217.9348-5.2225.9677-.364.0067-.7269.0098-1.0895.0115v2.1077c1.4823-.0084,2.989.0549,4.4261.3634Z" fill="#fff"/><path d="M30.746,34.3862c-1.6791.3604-3.1825,1.1948-4.6558,2.0485-2.7277,1.5804-6.1161,3.0382-9.0237.8882-2.3124-1.7098-2.8535-5.0797-1.1902-7.4756,2.0293-2.9233,5.8101-2.76,8.6482-1.2418,1.4507.776,2.8096,1.6971,4.3358,2.3306,1.6727.6942,3.4217.9348,5.2225.9677.364.0067.7269.0098,1.0895.0115v2.1077c-1.4823-.0084-2.989.0549-4.4261.3634Z" fill="#fff"/><rect x="44.265" y="22.5309" width="2.1074" height="20.8788" transform="translate(12.3483 78.289) rotate(-90)" fill="#fff"/><circle cx="44.3734" cy="19.1281" r="5.4345" fill="#fff"/><circle cx="44.3734" cy="74.5889" r="5.4345" fill="#fff"/><circle cx="68.3886" cy="32.9933" r="5.4345" fill="#fff"/><circle cx="20.3581" cy="60.7237" r="5.4345" fill="#fff"/><circle cx="20.3581" cy="32.9933" r="5.4345" fill="#fff"/><circle cx="68.3886" cy="60.7237" r="5.4345" fill="#fff"/></g><g id="f"><path d="M130.811,37.8115v.1592l-13.9375,35.1348h-6.1475v-.1055l5.2461-12.1357-10.1211-22.8936v-.1592h6.2529l5.0342,12.083c.583,1.4307,1.1133,2.8613,1.5898,4.6104.4771-1.749.9541-3.1797,1.4307-4.6104l4.6108-12.083h6.0415Z" fill="#242265"/><path d="M135.6889,25.4112h22.5225v5.7764h-16.2686v10.3867h14.5732v5.6172h-14.5732v14.2559h-6.2539V25.4112Z" fill="#242265"/><path d="M162.7192,29.4385c0-1.9072,1.3779-3.4443,3.6035-3.4443s3.6035,1.5371,3.6035,3.498c0,1.9072-1.4307,3.3916-3.6035,3.3916-2.2256,0-3.6035-1.5371-3.6035-3.4453ZM163.4077,37.8115h5.7764v23.6357h-5.7764v-23.6357Z" fill="#242265"/><path d="M175.9687,23.292h5.7764l.0532,38.1553h-5.8296V23.292Z" fill="#242265"/><path d="M210.0444,48.7813c0,.8486-.1055,1.8018-.2119,2.7559h-16.958c.7422,3.8154,3.71,5.8291,7.5254,5.8291,2.7026,0,4.6104-.7949,6.2529-2.2256l2.438,3.71c-2.7026,2.1729-5.564,3.2852-9.2212,3.2852-7.5781,0-12.7715-5.1406-12.7715-12.5596,0-6.9424,5.0347-12.4004,12.189-12.4004,6.6772,0,10.7573,4.5049,10.7573,11.6055ZM192.9277,47.6153h11.6587c-.1592-3.7617-2.3848-5.7227-5.4053-5.7227-3.127,0-5.6172,2.0664-6.2534,5.7227Z" fill="#242265"/><path d="M213.3862,59.3799l2.2793-4.0801c2.0137,1.2715,4.2393,1.9609,6.4648,1.9609,2.1201,0,3.4976-.9541,3.4976-2.4375,0-1.749-2.2256-2.5967-4.5571-3.498-3.7627-1.4307-6.6777-3.3916-6.6777-7.2598,0-4.3457,3.8691-6.625,8.373-6.625,2.7031,0,5.1934.6367,7.7373,2.1201l-2.0137,3.8682c-1.749-.9004-3.6567-1.377-5.2461-1.377-1.8022,0-3.3389.5293-3.3389,2.0137,0,1.5361,1.749,2.4375,4.2925,3.3379,4.1333,1.5371,7.1011,3.498,7.1011,7.4199,0,4.3984-3.5508,7.1533-8.7441,7.1533-3.4971,0-6.4121-.8477-9.168-2.5967Z" fill="#242265"/><path d="M271.7358,37.8115v24.5898c0,7.5781-5.1406,11.3408-12.4004,11.3408-4.3457,0-7.79-1.2188-10.7051-3.6035l2.2256-4.3457c2.1729,1.749,4.7695,2.7559,8.0024,2.7559,4.2925,0,7.0483-2.0146,7.0483-6.042,0-1.2188.0527-2.5439.1055-3.8682-2.0664,2.1729-4.875,3.2324-7.8428,3.2324-6.7305,0-11.3408-5.0879-11.3408-12.2949s4.6104-12.3477,11.2349-12.3477c3.5503,0,6.6772,1.3252,8.6909,4.0283l1.166-3.4453h3.8154ZM266.1713,49.5762c0-4.1865-2.3848-7.3125-6.7832-7.3125-4.1865,0-6.6772,3.0205-6.6772,7.3125s2.5435,7.3135,6.6245,7.3135c4.4512,0,6.8359-3.127,6.8359-7.3135Z" fill="#242265"/><path d="M294.4731,38.2891l-1.4834,4.875c-.9014-.3174-1.855-.5303-3.0742-.5303-3.3379,0-5.6172,2.1729-5.6172,5.9355v12.8779h-5.7764v-23.6357h3.9219l1.1128,3.498c1.3779-2.6494,3.7622-4.0273,6.8364-4.0273,1.6426,0,2.9678.3701,4.0801,1.0068Z" fill="#242265"/><path d="M317.3681,46.1846v15.2627h-3.8687l-1.0596-3.5508c-1.749,2.4902-4.5576,4.0273-8.4263,4.0273-4.3452,0-7.4194-2.4375-7.4194-6.624,0-5.4053,4.7695-8.373,11.9766-8.373,1.2192,0,2.1201.0527,2.9678.1064v-1.0605c0-2.4375-1.8018-3.6562-4.8223-3.6562-2.332,0-4.9287.7422-7.3662,1.9072l-1.6426-4.3984c3.4976-1.5898,6.73-2.4375,9.9097-2.4375,6.0415,0,9.751,3.0742,9.751,8.7969ZM311.6977,50.7949c-.9541-.1055-1.6958-.1582-2.7559-.1582-4.1865,0-6.624,1.4834-6.624,4.0801,0,1.8545,1.2715,2.8613,3.3916,2.8613,3.3916,0,5.8823-2.4902,5.9883-6.7832Z" fill="#242265"/><path d="M348.7431,49.5235c0,7.3662-4.7163,12.5068-11.2876,12.5068-3.2856,0-6.041-1.2725-7.9492-3.2861.1064,1.6426.1064,3.5508.1064,5.6172v8.7441h-5.7764v-35.2939h3.9214l1.1128,3.6035c1.9609-2.5967,4.9287-4.1865,8.585-4.1865,6.5186,0,11.2876,5.1934,11.2876,12.2949ZM342.8608,49.6826c0-4.3984-2.6494-7.3662-6.624-7.3662-4.0806,0-6.8359,2.9141-6.8359,7.2598,0,4.4521,2.8086,7.4189,6.8359,7.4189,3.9746,0,6.624-3.0205,6.624-7.3125Z" fill="#242265"/><path d="M375.5082,46.6084v14.8389h-5.7764v-14.3613c0-2.8623-1.2188-4.7168-4.0806-4.7168-3.7627,0-5.7231,3.127-5.7231,6.8896v12.1885h-5.7764V23.292h5.7764v14.0957c0,1.1133,0,2.1729-.0532,3.6035,1.4839-2.3311,3.8154-3.8154,7.2603-3.8154,5.5645,0,8.373,3.6035,8.373,9.4326Z" fill="#242265"/><path d="M380.227,59.3799l2.2788-4.0801c2.0137,1.2715,4.2397,1.9609,6.4653,1.9609,2.1196,0,3.4971-.9541,3.4971-2.4375,0-1.749-2.2256-2.5967-4.5571-3.498-3.7622-1.4307-6.6772-3.3916-6.6772-7.2598,0-4.3457,3.8687-6.625,8.373-6.625,2.7026,0,5.1934.6367,7.7373,2.1201l-2.0137,3.8682c-1.749-.9004-3.6572-1.377-5.2471-1.377-1.8018,0-3.3379.5293-3.3379,2.0137,0,1.5361,1.7485,2.4375,4.292,3.3379,4.1338,1.5371,7.1016,3.498,7.1016,7.4199,0,4.3984-3.5508,7.1533-8.7441,7.1533-3.4976,0-6.4121-.8477-9.168-2.5967Z" fill="#242265"/><path d="M108.998,88.7217h-3.1191v-1.8164h3.1191v-4.2734c0-2.9268,1.5259-5.3828,4.8481-5.3828,1.5938,0,2.7129.4707,3.8652,1.3115l-.9492,1.4805c-.8477-.5713-1.5933-.875-2.6782-.875-1.8311,0-3.0176,1.1777-3.0176,3.4658v4.2734h4.916v1.8164h-4.916v13.0547h-2.0684v-13.0547Z" fill="#242265"/><path d="M117.3032,94.3408c0-4.5762,3.2207-7.8057,7.7305-7.8057,4.5771,0,7.7979,3.2295,7.7979,7.8057s-3.2207,7.8057-7.7979,7.8057c-4.5098,0-7.7305-3.2305-7.7305-7.8057ZM130.7299,94.3408c0-3.4316-2.3057-5.8877-5.6963-5.8877-3.3228,0-5.6284,2.4561-5.6284,5.8877,0,3.4658,2.3057,5.8877,5.6284,5.8877,3.3564,0,5.6963-2.4219,5.6963-5.8877Z" fill="#242265"/><path d="M145.8149,87.1065l-.6104,1.8174c-.5767-.2021-1.1533-.3701-2.0005-.3701-2.4414,0-4.1025,1.7158-4.1025,4.6094v8.6133h-2.0684v-14.8711h1.5596l.4067,2.1865c.8477-1.5479,2.272-2.4893,4.374-2.4893.9492,0,1.7627.2012,2.4414.5039Z" fill="#242265"/><path d="M154.9326,100.3965l1.0513-1.6143c1.3223.9414,2.7461,1.3457,4.4072,1.3457,1.8311,0,3.0176-.9082,3.0176-2.2549,0-1.4463-1.6611-2.1865-3.458-2.8936-2.4414-.9414-4.4756-2.0859-4.4756-4.4746,0-2.4893,2.3057-3.7686,4.8486-3.7686,1.627,0,3.1865.4717,4.543,1.3467l-.9155,1.4805c-1.085-.6064-2.3052-.9424-3.5259-.9424-1.5259,0-2.8818.5049-2.8818,1.8838,0,1.3457,1.3896,2.0186,3.1528,2.6914,2.7124,1.0098,4.7808,2.1875,4.7808,4.6768s-2.1357,4.1729-5.0859,4.1729c-2.1021,0-3.8652-.5723-5.4585-1.6494Z" fill="#242265"/><path d="M170.3911,97.5703v-8.8486l-2.9155-.1348v-1.6816h2.9155v-4.9463h2.0684v4.9463h5.3574v1.8164h-5.3574v8.8486c0,1.8848.7803,2.5234,2.1025,2.5234,1.0508,0,2-.3359,2.9492-1.0088l.916,1.5479c-1.1191.8408-2.5093,1.4131-4.0688,1.4131-2.4409,0-3.9673-1.4131-3.9673-4.4756Z" fill="#242265"/><path d="M190.2919,87.1065l-.6104,1.8174c-.5767-.2021-1.1528-.3701-2.0005-.3701-2.4409,0-4.1025,1.7158-4.1025,4.6094v8.6133h-2.0684v-14.8711h1.5601l.4067,2.1865c.8477-1.5479,2.2715-2.4893,4.374-2.4893.9492,0,1.7627.2012,2.4409.5039Z" fill="#242265"/><path d="M205.7172,93.7354c0,.4707-.0342.9414-.1016,1.4463h-12.0024c.3389,3.1631,2.7798,5.0469,5.5942,5.0469,2.1021,0,3.4243-.6387,4.5771-1.8164l1.1865,1.4805c-1.5254,1.4463-3.3564,2.2539-5.7295,2.2539-4.5435,0-7.7305-3.2305-7.7305-7.8398,0-4.3066,3.1191-7.7715,7.5605-7.7715,4.1704,0,6.6455,2.8594,6.6455,7.2002ZM193.6811,93.3653h10.002c-.0679-3.1631-1.8989-4.9121-4.645-4.9121-2.7803,0-4.9502,1.9512-5.3569,4.9121Z" fill="#242265"/><path d="M220.7348,91.8848v9.8916h-1.5254l-.373-2.6914c-1.085,1.7832-3.0176,2.9609-5.6621,2.9609-2.916,0-4.7808-1.582-4.7808-4.1387,0-3.3311,3.0854-5.249,7.4927-5.249,1.1191,0,1.9668.0342,2.7466.1348v-1.0098c0-2.0859-1.4917-3.1289-3.7974-3.1289-1.6274,0-3.2891.4717-4.9502,1.2451l-.7119-1.75c2.0342-.9414,3.9668-1.4131,5.8652-1.4131,3.4248,0,5.6963,1.7832,5.6963,5.1484ZM218.6328,94.5088c-.814-.1006-1.458-.1348-2.4409-.1348-3.5264,0-5.6284,1.2119-5.6284,3.3984,0,1.4805,1.085,2.3555,2.9497,2.3555,3.085,0,5.0176-2.2207,5.1196-5.6191Z" fill="#242265"/><path d="M247.8569,92.4561v9.3203h-2.0684v-9.4209c0-2.3887-1.2207-3.8359-3.3228-3.8359-3.0176,0-4.5771,2.7256-4.5771,5.5186v7.7383h-2.0684v-9.4541c0-2.0527-1.0513-3.8027-3.3228-3.8027-3.0513,0-4.6108,2.7256-4.6108,5.5186v7.7383h-2.0684v-14.8711h1.5596l.4751,2.5566c.9829-1.8164,2.7119-2.8594,4.8818-2.8594,2.2715,0,3.9331,1.1104,4.6455,2.9941.9829-1.8174,2.7119-2.9941,5.2207-2.9941,3.4248,0,5.2559,2.2539,5.2559,5.8535Z" fill="#242265"/><path d="M252.9384,77.6524h2.0684l.0337,24.124h-2.0684l-.0337-24.124Z" fill="#242265"/><path d="M259.8198,81.5215c0-.875.6104-1.5479,1.5596-1.5479.9497,0,1.5601.6729,1.5601,1.5479,0,.8418-.644,1.4805-1.5601,1.4805-.9492,0-1.5596-.6729-1.5596-1.4805ZM260.3286,86.9053h2.0684v14.8711h-2.0684v-14.8711Z" fill="#242265"/><path d="M268.7358,97.5703v-8.8486l-2.916-.1348v-1.6816h2.916v-4.9463h2.0684v4.9463h5.3569v1.8164h-5.3569v8.8486c0,1.8848.7798,2.5234,2.1021,2.5234,1.0513,0,2.0005-.3359,2.9497-1.0088l.9155,1.5479c-1.1187.8408-2.5093,1.4131-4.0688,1.4131-2.4409,0-3.9668-1.4131-3.9668-4.4756Z" fill="#242265"/></g></g></g></svg>