<svg id="Logo" xmlns="http://www.w3.org/2000/svg" viewBox="0 0 364.6699 100"><g id="yFiles_graphs"><path d="M33.5683,57.9888c-.1613-.2916-.325-.5807-.4896-.869l.0012-.0007-3.6908-6.3926c-.6215.4121-1.2202.8543-1.7667,1.3483-1.1378,1.0286-1.9354,2.3386-2.6955,3.6566.4411.7668.8907,1.5273,1.4327,2.2348,1.0084,1.316,2.2849,2.3074,3.6976,3.1577.0392.0236.0787.0463.118.0698.0403.0225.08.0455.1204.0679,1.4427.7982,2.9395,1.4081,4.5834,1.6234.1141.015.2281.018.3422.0296-.0116-.1141-.0146-.2281-.0296-.3422-.2153-1.644-.8251-3.1407-1.6234-4.5835Z" style="fill:#00d8ff;"/><path d="M34.8148,56.2656c.655,1.1411,1.3749,2.2654,2.249,3.2322.4938.5463,1.0561,1.0098,1.6494,1.433.2983-.6572.5509-1.3332.7039-2.0463.2737-1.2754.335-2.6104.3316-3.9271v-10.2667l-8.7125,5.0302,3.7786,6.5447Z" style="fill:#00d8ff;"/><path d="M28.2378,31.6018c-.7157.1536-1.3942.4072-2.0536.707.4245.5959.8898,1.1605,1.4382,1.6563.9676.8747,2.0928,1.5951,3.2348,2.2505l8.8915,5.1335v-10.0789h-7.5839c-1.3167-.0034-2.6517.0578-3.927.3315Z" style="fill:#00d8ff;"/><path d="M51.5338,37.8866l-8.8912,5.1334,8.7125,5.0302,3.725-6.4518-.0115-.0067c.6852-1.1714,1.3246-2.3949,1.7379-3.6755.2234-.6923.3425-1.4023.4128-2.1187-.7164.0704-1.4264.1894-2.1187.4128-1.2414.4006-2.428,1.015-3.5667,1.6763Z" style="fill:#00d8ff;"/><path d="M24.1505,41.6532c-.8442-1.3945-1.827-2.6555-3.1289-3.653-.1093-.0837-.2253-.1559-.337-.2355-.051.113-.1096.2216-.1573.3365-.6356,1.5314-.8558,3.1325-.8859,4.7811-.0009.046-.0007.0917-.0015.1376.0007.046.0006.0917.0015.1376.0301,1.6486.2504,3.2497.8859,4.7811.3459.8335.7865,1.6122,1.2358,2.3871.929.0024,1.8569-.0017,2.7848-.1232,1.3591-.178,2.6151-.6343,3.8256-1.2352l-4.223-7.3143Z" style="fill:#00d8ff;"/><path d="M31.2923,29.3291c.3332.0062.6655.0089.9974.0105v.0013h7.4108c-.0464-.738-.1301-1.4713-.2834-2.1855-.3187-1.4849-1.0436-2.8187-1.7968-4.1236-1.5223-.0007-3.0569.0347-4.5175.5061-1.0109.3262-1.985.7953-2.9272,1.3147-.9208.5563-1.8139,1.1652-2.6019,1.8776-.5209.4708-.9636,1.0062-1.3711,1.5688.1038.0466.2032.1005.3087.1443,1.5314.6356,3.1325.8558,4.7811.8859Z" style="fill:#00d8ff;"/><path d="M26.3581,41.5916l-.0115.0067,3.725,6.4518,8.7125-5.0302-8.783-5.0709-.0007.0012c-.2883-.1646-.5774-.3284-.869-.4896-1.4427-.7982-2.9395-1.4081-4.5835-1.6234-.113-.0148-.226-.0178-.3391-.0294.0706.7128.1891,1.4193.4114,2.1082.4133,1.2806,1.0527,2.5041,1.7379,3.6755Z" style="fill:#00d8ff;"/><path d="M50.3905,49.7209l-8.7125-5.0301v10.1417h.0013c.0015.3319.0043.6642.0105.9974.03,1.6486.2503,3.2497.8859,4.7811.0444.1069.0991.2079.1464.3132.59-.4216,1.1494-.8828,1.6407-1.4264.874-.9667,1.5941-2.0911,2.249-3.2321l3.7786-6.5448Z" style="fill:#00d8ff;"/><path d="M60.7125,37.7853c-.1017.073-.2078.1385-.3075.2149-1.3021.9977-2.2851,2.259-3.1294,3.6538l-4.2261,7.3198c.6676.3322,1.3499.6296,2.051.8558,1.4605.4714,2.9951.5068,4.5175.5061.7532-1.3049,1.4781-2.6387,1.7968-4.1236.223-1.0386.3037-2.1166.3251-3.1922-.0214-1.0756-.1021-2.1537-.3251-3.1923-.1527-.7117-.4048-1.3864-.7023-2.0424Z" style="fill:#00d8ff;"/><path d="M54.8763,28.4577c.118-.049.2296-.1091.3456-.1616-.407-.5615-.8489-1.0959-1.369-1.566-.7879-.7123-1.681-1.3213-2.6018-1.8776-.9422-.5193-1.9163-.9885-2.9272-1.3147-1.4571-.4702-2.9879-.5065-4.5067-.506-.4513.7781-.8941,1.5599-1.2415,2.397-.523,1.2602-.7562,2.5696-.8422,3.912h8.4138c1.6301-.0338,3.2139-.2545,4.729-.8832Z" style="fill:#00d8ff;"/><path d="M81.1785,33.9903c-.0427-9.0027-4.8824-17.2974-12.6995-21.7591l-15.3895-8.7924c-7.8171-4.4644-17.4199-4.4189-25.1943.1165l-15.3099,8.9347C4.8109,17.0255.0479,25.3658.0906,34.3685l.0825,17.7214c.0399,9.0027,4.8824,17.2974,12.6995,21.7648l15.3895,8.7896c7.817,4.4645,17.4227,4.4188,25.1971-.1166l15.307-8.9346c7.7744-4.5382,12.5375-12.8757,12.4948-21.8785l-.0825-17.7242ZM63.6876,43.1576c.03,1.6486.2503,3.2497.8859,4.7811.5799,1.3972,1.4232,2.6412,2.1335,3.9693.4616.8629.7819,1.821.9118,2.784.2034.9662.1352,1.9905-.2778,2.9395-.0723.1663-.1533.3214-.2374.4721-.3416.6523-.8413,1.2412-1.5334,1.7217-.3687.2559-.7674.4343-1.175.5781-.1199.0443-.2393.0818-.3588.1159-.0421.014-.0851.0264-.1276.0397-.04.0096-.0781.0281-.1183.0368-1.2759.379-2.6911.4641-4.0103.4621-1.5588-.0024-3.1328.0242-4.629.5071-1.0105.3261-1.9841.7949-2.926,1.314-.9212.5565-1.8148,1.1656-2.6031,1.8783-1.1663,1.0543-1.9763,2.4041-2.7537,3.7552-.7441,1.2935-1.6454,2.6381-2.7951,3.5872-.1552.1391-.3206.2728-.501.3981-.0356.0248-.0757.0384-.1118.0621-.2324.1573-.4786.2967-.7425.4122-.0056.0024-.0115.0043-.0172.0067-.391.1693-.8182.2863-1.2787.3486-.059.0084-.1172.0187-.1772.025-.0307.0031-.059.0101-.09.0126-.0345.0029-.0676-.0038-.102-.0017-.0347.0023-.0695.0043-.1046.0059-.0468.002-.0928.0072-.1396.008-.0312.0005-.0609.0046-.0924.0045-.001,0-.002.0003-.0031.0003s-.0021-.0003-.0031-.0003c-.1149.0002-.2249-.011-.3365-.0184-.0344-.0021-.0675.0046-.102.0017-.0309-.0026-.0593-.0095-.0899-.0126-.0601-.0063-.1185-.0165-.1776-.025-.0164-.0022-.0327-.0045-.0491-.0069-.022-.0033-.0439-.0057-.0659-.0093-.8594-.1361-1.597-.4708-2.2095-.9541-.089-.0647-.1743-.1355-.2604-.2049-.0146-.0128-.0308-.023-.0452-.0359-1.1594-.9498-2.0674-2.3026-2.8159-3.6037-.7773-1.3512-1.5873-2.701-2.7536-3.7552-.7875-.7119-1.6801-1.3206-2.6003-1.8767-.9427-.5198-1.9172-.9891-2.9288-1.3156-1.4962-.4828-3.0701-.5095-4.6289-.5071-1.3774.0021-2.8594-.0908-4.178-.5143-1.0871-.2645-2.0911-.865-2.7882-1.8079-.6885-.9311-.9666-1.9163-.9835-2.9103-.0008-.0364-.0029-.0723-.0029-.1088.0046-1.8127.8771-3.6502,1.7995-5.2421.7815-1.3488,1.5454-2.7252,1.8753-4.2623.223-1.0386.3037-2.1166.3251-3.1922-.0214-1.0756-.1021-2.1537-.3251-3.1923-.3299-1.5372-1.0938-2.9135-1.8753-4.2623-.8209-1.4169-1.604-3.0284-1.7699-4.6438-.0001-.0008,0-.0016-.0001-.0023-.1259-1.231.1059-2.4641.9569-3.615.3134-.4238.6996-.7636,1.1155-1.0543.0145-.0104.0287-.0214.0433-.0317.2021-.1379.4116-.2578.6305-.3636.1008-.0491.2007-.1005.3042-.1423.1409-.0568.2831-.1041.4284-.1479.0039-.0012.0077-.0029.0116-.004.8757-.3465,1.8344-.535,2.7811-.5657,1.5053-.0488,3.0044.0594,4.5043-.1369,1.644-.2153,3.1407-.8251,4.5835-1.6234.04-.0221.0793-.0449.1191-.0671.0397-.0237.0796-.0466.1192-.0705,1.4127-.8503,2.6892-1.8416,3.6976-3.1577.92-1.2007,1.5757-2.5531,2.3707-3.8324.6325-1.0179,1.4937-1.9246,2.4882-2.5545.0293-.0204.0566-.0424.0864-.0621.1943-.1271.397-.2341.6061-.3321.015-.0073.027-.0182.0422-.0253.0135-.0063.0269-.0101.0403-.0163.0678-.031.1335-.0638.2029-.0919.0925-.0364.1838-.0715.2782-.1025.1853-.064.3702-.116.5543-.1559.0107-.0023.0209-.0057.0316-.0079.0444-.0093.0884-.012.1328-.02.0468-.0081.0933-.0144.1404-.0212.1768-.0264.3526-.0426.5273-.0485.0539-.0026.1075-.0065.1617-.0073.0107,0,.0206-.0032.0314-.0032s.0206.0031.0314.0032c.0266.0004.0533-.0003.0799.0005.0379.0007.0753.0062.1132.0078.2546.0103.5107.0344.7692.0887.0093.0019.0181.0047.0274.0067.0952.0193.187.0523.2812.0772.1269.0355.2538.0748.3811.1219.4078.1438.8068.3222,1.1757.5783.0601.0417.1113.0884.1685.1317.9139.6226,1.7045,1.4805,2.2963,2.4329.7949,1.2793,1.4507,2.6317,2.3707,3.8324,1.0084,1.3161,2.2849,2.3074,3.6976,3.1577.0392.0236.0787.0463.118.0698.0403.0225.08.0455.1204.0679,1.4427.7983,2.9395,1.4081,4.5835,1.6234,1.4999.1964,2.9989.0881,4.5043.1369.9854.0319,1.9828.2366,2.887.6109.0253.0089.0507.0213.076.0307.4078.1438.8066.3221,1.1754.5782.6331.4395,1.1033.9708,1.4411,1.5572.0143.0228.0286.0453.0425.0684.0131.0237.0256.0475.0382.0714.3388.5857.5639,1.2584.6279,2.0264.0378.4537-.0088.8943-.0908,1.3249-.1219.9915-.4469,1.9807-.9221,2.869-.7104,1.3281-1.5536,2.5721-2.1335,3.9693-.6356,1.5314-.8558,3.1325-.8859,4.7811-.0009.046-.0007.0917-.0015.1376.0007.046.0006.0917.0015.1376Z" style="fill:#00d8ff;"/><path d="M52.034,50.7329l-3.6871,6.3863.0012.0007c-.1646.2883-.3284.5774-.4896.869-.7982,1.4427-1.4081,2.9395-1.6234,4.5835-.015.1141-.018.2281-.0296.3422.1141-.0116.2281-.0146.3422-.0296,1.6439-.2153,3.1407-.8251,4.5834-1.6234.0404-.0223.0801-.0454.1204-.0679.0392-.0235.0787-.0461.118-.0698,1.4127-.8503,2.6891-1.8417,3.6976-3.1577.5397-.7044.9878-1.4615,1.4271-2.2249-.4555-.7932-.9173-1.5815-1.4777-2.313-.8337-1.088-1.8568-1.9474-2.9825-2.6954Z" style="fill:#00d8ff;"/><path d="M50.4603,36.2771c.2867-.1673.5731-.3359.8585-.5078,1.4127-.8503,2.6892-1.8416,3.6976-3.1577.0705-.092.1307-.19.1982-.2837-.6629-.302-1.3452-.5571-2.0649-.7116-1.3157-.2824-2.695-.3404-4.052-.3327v-.0133h-7.4198v10.0789l8.783-5.0709-.0007-.0012Z" style="fill:#00d8ff;"/><g id="yFiles_html_neu"><path d="M119.8451,34.7379v.1457l-12.7591,32.1643h-5.6279v-.0966l4.8027-11.11-9.2661-20.9577v-.1457h5.7249l4.6087,11.0613c.5337,1.3102,1.0187,2.6199,1.4555,4.2202.4363-1.6003.8735-2.9101,1.3097-4.2202l4.2207-11.0613h5.5309Z" style="fill:#00d8ff;"/><path d="M124.3112,23.3855h20.6189v5.2882h-14.894v9.5089h13.3415v5.1424h-13.3415v13.0501h-5.7249V23.3855Z" style="fill:#00d8ff;"/><path d="M149.0565,27.0725c0-1.7465,1.2615-3.1532,3.299-3.1532s3.2994,1.4067,3.2994,3.202c0,1.7465-1.3102,3.1049-3.2994,3.1049-2.0375,0-3.299-1.4072-3.299-3.1537ZM149.6873,34.7379h5.2882v21.6372h-5.2882v-21.6372Z" style="fill:#00d8ff;"/><path d="M161.1862,21.4451h5.2882l.0487,34.93h-5.3369V21.4451Z" style="fill:#00d8ff;"/><path d="M192.3823,44.7805c0,.7765-.097,1.6495-.194,2.5229h-15.5247c.6795,3.493,3.396,5.3364,6.8894,5.3364,2.4738,0,4.2207-.7277,5.7244-2.0375l2.2315,3.3955c-2.4738,1.9892-5.0937,3.0084-8.4414,3.0084-6.9376,0-11.6921-4.7061-11.6921-11.4981,0-6.3556,4.6087-11.3523,11.1583-11.3523,6.1129,0,9.8486,4.1237,9.8486,10.6246ZM176.7118,43.713h10.6738c-.1457-3.4442-2.1832-5.2394-4.9489-5.2394-2.8622,0-5.1424,1.8922-5.7249,5.2394Z" style="fill:#00d8ff;"/><path d="M195.4417,54.4833l2.0858-3.7361c1.8435,1.1649,3.8819,1.7952,5.9193,1.7952,1.9409,0,3.2015-.8735,3.2015-2.2315,0-1.6012-2.0375-2.3772-4.1715-3.2015-3.4456-1.3102-6.1133-3.1049-6.1133-6.6466,0-3.9784,3.5421-6.0646,7.6654-6.0646,2.4747,0,4.7544.5825,7.0834,1.9409l-1.8435,3.5412c-1.6012-.8247-3.3481-1.261-4.8036-1.261-1.6495,0-3.0558.485-3.0558,1.8435,0,1.4067,1.6003,2.2315,3.9292,3.0562,3.7844,1.4072,6.5014,3.202,6.5014,6.7919,0,4.0267-3.2507,6.5496-8.0051,6.5496-3.2015,0-5.8702-.776-8.3931-2.3772Z" style="fill:#00d8ff;"/><path d="M248.8597,34.7379v22.5107c0,6.9376-4.7061,10.3823-11.3532,10.3823-3.9775,0-7.1307-1.1157-9.7994-3.299l2.0375-3.9784c1.9892,1.6012,4.3664,2.5229,7.3256,2.5229,3.9301,0,6.4531-1.8435,6.4531-5.5304,0-1.1166.0483-2.3289.0966-3.5421-1.8918,1.9892-4.463,2.9592-7.1799,2.9592-6.1616,0-10.3823-4.657-10.3823-11.2549s4.2207-11.3041,10.2849-11.3041c3.2507,0,6.1133,1.2127,7.9568,3.6874l1.0675-3.1537h3.493ZM243.7655,45.5082c0-3.8327-2.1832-6.6949-6.2099-6.6949-3.8327,0-6.1133,2.7652-6.1133,6.6949s2.3289,6.6945,6.0642,6.6945c4.0759,0,6.2591-2.8618,6.2591-6.6945Z" style="fill:#00d8ff;"/><path d="M269.6753,35.1746l-1.3589,4.4634c-.8243-.291-1.6978-.4855-2.8135-.4855-3.0567,0-5.1424,1.9892-5.1424,5.4339v11.7886h-5.2882v-21.6372h3.5904l1.0183,3.202c1.2615-2.4255,3.4447-3.687,6.2591-3.687,1.5038,0,2.716.3393,3.7352.9217Z" style="fill:#00d8ff;"/><path d="M290.6348,42.4032v13.9718h-3.5412l-.97-3.2507c-1.6012,2.2807-4.1733,3.6879-7.7145,3.6879-3.9775,0-6.7919-2.2324-6.7919-6.0651,0-4.948,4.3664-7.6649,10.9643-7.6649,1.1157,0,1.9409.0487,2.7169.0974v-.9705c0-2.2319-1.6495-3.3477-4.4147-3.3477-2.1349,0-4.5121.6795-6.7436,1.7465l-1.5038-4.0267c3.2015-1.4555,6.1607-2.2315,9.0717-2.2315,5.5313,0,8.9268,2.8139,8.9268,8.0534ZM285.4441,46.6239c-.8735-.097-1.5529-.1453-2.5229-.1453-3.8327,0-6.0642,1.3576-6.0642,3.7357,0,1.6978,1.164,2.6195,3.1049,2.6195,3.1049,0,5.3847-2.2807,5.4822-6.2099Z" style="fill:#00d8ff;"/><path d="M319.358,45.4595c0,6.7432-4.3172,11.4493-10.3331,11.4493-3.0084,0-5.5304-1.164-7.2774-3.0075.0966,1.5038.0966,3.2498.0966,5.1424v8.0042h-5.2873v-32.3101h3.5895l1.0192,3.299c1.7943-2.3772,4.5121-3.8327,7.8594-3.8327,5.9667,0,10.3331,4.7544,10.3331,11.2553ZM313.9733,45.6052c0-4.0267-2.4255-6.7436-6.0642-6.7436-3.7361,0-6.2582,2.6682-6.2582,6.6466,0,4.075,2.5712,6.7919,6.2582,6.7919,3.6387,0,6.0642-2.7652,6.0642-6.6949Z" style="fill:#00d8ff;"/><path d="M343.8615,42.7913v13.5838h-5.2891v-13.1471c0-2.6199-1.1157-4.3177-3.7352-4.3177-3.4447,0-5.239,2.8622-5.239,6.3069v11.1579h-5.2891V21.4451h5.2891v12.9048c0,1.0187,0,1.9892-.0492,3.299,1.358-2.1345,3.493-3.493,6.6471-3.493,5.0942,0,7.6654,3.299,7.6654,8.6354Z" style="fill:#00d8ff;"/><path d="M348.1814,54.4833l2.0858-3.7361c1.8435,1.1649,3.881,1.7952,5.9193,1.7952,1.94,0,3.2015-.8735,3.2015-2.2315,0-1.6012-2.0375-2.3772-4.1724-3.2015-3.4438-1.3102-6.1124-3.1049-6.1124-6.6466,0-3.9784,3.5412-6.0646,7.6654-6.0646,2.4738,0,4.7544.5825,7.0834,1.9409l-1.8435,3.5412c-1.6012-.8247-3.3481-1.261-4.8036-1.261-1.6495,0-3.0567.485-3.0567,1.8435,0,1.4067,1.6012,2.2315,3.9301,3.0562,3.7835,1.4072,6.5014,3.202,6.5014,6.7919,0,4.0267-3.2507,6.5496-8.0051,6.5496-3.2024,0-5.8702-.776-8.3931-2.3772Z" style="fill:#00d8ff;"/><path d="M99.8758,81.3443h-2.8555v-1.6629h2.8555v-3.9123c0-2.6794,1.3969-4.9279,4.4388-4.9279,1.4586,0,2.4827.4309,3.5386,1.2007l-.869,1.3553c-.776-.523-1.459-.801-2.4523-.801-1.6763,0-2.7625,1.0782-2.7625,3.1729v3.9123h4.5005v1.6629h-4.5005v11.9513h-1.8935v-11.9513Z" style="fill:#00d8ff;"/><path d="M107.479,86.4885c0-4.1894,2.9489-7.1459,7.0771-7.1459,4.1903,0,7.1392,2.9565,7.1392,7.1459s-2.9489,7.1459-7.1392,7.1459c-4.1282,0-7.0771-2.9574-7.0771-7.1459ZM119.7705,86.4885c0-3.1416-2.1108-5.3901-5.2144-5.3901-3.0419,0-5.1527,2.2485-5.1527,5.3901,0,3.1729,2.1108,5.3901,5.1527,5.3901,3.0728,0,5.2144-2.2172,5.2144-5.3901Z" style="fill:#00d8ff;"/><path d="M133.5805,79.8656l-.5588,1.6638c-.5275-.1851-1.0549-.3388-1.831-.3388-2.2351,0-3.7558,1.5708-3.7558,4.2198v7.8853h-1.8935v-13.6142h1.4278l.3728,2.0017c.776-1.417,2.0795-2.2789,4.0039-2.2789.869,0,1.6142.1842,2.2346.4613Z" style="fill:#00d8ff;"/></g></g><path d="M141.1483,91.1427l1.0312-1.5771c1.5459,1.3945,3.6987,2.2139,6.0635,2.2139,2.5771,0,4.8208-1.3643,4.8208-3.8203,0-2.5469-2.3647-3.5479-5.063-4.4873-3.0322-1.0615-6.2764-2.5771-6.2764-6.0332,0-3.2441,2.9712-5.1543,6.3066-5.1543,2.3042,0,4.2749.6064,6.2456,2.0615l-.9097,1.5156c-1.6675-1.1826-3.3047-1.7285-5.2451-1.7285-2.2134,0-4.3662,1.0615-4.3662,3.2139,0,2.5166,2.4863,3.4268,4.9727,4.3057,3.3955,1.2129,6.3364,2.7285,6.3364,6.2158,0,3.6074-3.0317,5.7607-6.8218,5.7607-2.7891,0-5.3359-1.001-7.0947-2.4863Z" style="fill:#00d8ff;"/><path d="M159.4871,89.4747v-7.9736l-2.6074-.1211v-1.5166h2.6074v-4.457h1.8496v4.457h4.7905v1.6377h-4.7905v7.9736c0,1.6982.6973,2.2744,1.8799,2.2744.9399,0,1.7886-.3037,2.6377-.9102l.8184,1.3945c-1.0005.7588-2.2437,1.2734-3.6382,1.2734-2.1831,0-3.5474-1.2734-3.5474-4.0322Z" style="fill:#00d8ff;"/><path d="M177.2821,80.046l-.5459,1.6367c-.5156-.1816-1.0308-.333-1.7891-.333-2.1826,0-3.6685,1.5459-3.6685,4.1533v7.7617h-1.8496v-13.4014h1.395l.3638,1.9707c.7578-1.3945,2.0312-2.2432,3.9111-2.2432.8486,0,1.5767.1816,2.1831.4551Z" style="fill:#00d8ff;"/><path d="M191.0745,86.0187c0,.4238-.0303.8486-.0913,1.3037h-10.7329c.3032,2.8496,2.4863,4.5479,5.0029,4.5479,1.8794,0,3.062-.5762,4.0928-1.6377l1.0615,1.334c-1.3647,1.3037-3.002,2.0322-5.124,2.0322-4.063,0-6.9131-2.9111-6.9131-7.0645,0-3.8809,2.7896-7.0039,6.7612-7.0039,3.7295,0,5.9429,2.5771,5.9429,6.4883ZM180.3109,85.6847h8.9443c-.0605-2.8496-1.6978-4.4268-4.1538-4.4268-2.4863,0-4.4268,1.7588-4.7905,4.4268Z" style="fill:#00d8ff;"/><path d="M204.5023,84.3507v8.9141h-1.3652l-.333-2.4258c-.9707,1.6074-2.6982,2.668-5.0635,2.668-2.6074,0-4.2749-1.4248-4.2749-3.7285,0-3.002,2.7593-4.7305,6.7007-4.7305,1,0,1.7588.0303,2.4561.1211v-.9092c0-1.8799-1.334-2.8193-3.3965-2.8193-1.4551,0-2.9404.4238-4.4263,1.1211l-.6367-1.5762c1.8188-.8486,3.5474-1.2734,5.2456-1.2734,3.0615,0,5.0938,1.6074,5.0938,4.6387ZM202.6224,86.716c-.7275-.0908-1.3037-.1211-2.1836-.1211-3.1533,0-5.0322,1.0908-5.0322,3.0615,0,1.334.9697,2.123,2.6377,2.123,2.7588,0,4.4873-2.001,4.5781-5.0635Z" style="fill:#00d8ff;"/><path d="M228.7533,84.8663v8.3984h-1.8496v-8.4893c0-2.1523-1.0908-3.4561-2.9707-3.4561-2.6982,0-4.0938,2.4551-4.0938,4.9717v6.9736h-1.8496v-8.5195c0-1.8496-.9395-3.4258-2.9707-3.4258-2.7285,0-4.123,2.4551-4.123,4.9717v6.9736h-1.8496v-13.4014h1.3945l.4238,2.3047c.8799-1.6377,2.4258-2.5771,4.3662-2.5771,2.0312,0,3.5176,1,4.1543,2.6982.8789-1.6367,2.4248-2.6982,4.6689-2.6982,3.0625,0,4.6992,2.0312,4.6992,5.2754Z" style="fill:#00d8ff;"/><path d="M233.2953,71.5255h1.8496l.0303,21.7393h-1.8496l-.0303-21.7393Z" style="fill:#00d8ff;"/><path d="M239.4476,75.0128c0-.7881.5459-1.3945,1.3945-1.3945s1.3945.6064,1.3945,1.3945c0,.7578-.5762,1.334-1.3945,1.334-.8486,0-1.3945-.6064-1.3945-1.334ZM239.9027,79.8634h1.8496v13.4014h-1.8496v-13.4014Z" style="fill:#00d8ff;"/><path d="M247.4193,89.4747v-7.9736l-2.6074-.1211v-1.5166h2.6074v-4.457h1.8496v4.457h4.79v1.6377h-4.79v7.9736c0,1.6982.6973,2.2744,1.8799,2.2744.9395,0,1.7891-.3037,2.6377-.9102l.8184,1.3945c-1,.7588-2.2432,1.2734-3.6377,1.2734-2.1836,0-3.5479-1.2734-3.5479-4.0322Z" style="fill:#00d8ff;"/></svg>